<?xml version="1.0" encoding="utf-8"?>
<!-- Generator: Adobe Illustrator 18.1.1, SVG Export Plug-In . SVG Version: 6.00 Build 0)  -->
<svg version="1.1" id="Layer_1" xmlns="http://www.w3.org/2000/svg" xmlns:xlink="http://www.w3.org/1999/xlink" x="0px" y="0px"
	 width="1069.2px" height="1080px" viewBox="425.4 0 1069.2 1080" enable-background="new 425.4 0 1069.2 1080"
	 xml:space="preserve">
<g>
	<g>
		<g>
			<polyline fill="#B6D44F" points="787.7,398.5 607.9,219.2 607.9,109.6 787.2,288.9 			"/>
			<polyline fill="#479A45" points="608.5,468.2 787.7,288.9 787.7,398.5 607.9,577.8 607.9,468.2 			"/>
			<polygon fill="#ED8022" points="428.1,288.9 607.9,109.6 607.9,0 428.1,179.3 			"/>
			<polygon fill="#FBCD08" points="607.9,468.2 428.1,288.9 428.1,179.3 607.9,358.6 			"/>
		</g>
	</g>
	<g>
		<path fill="#11ACD1" d="M785.6,631.8c-103.1,0-155,40.5-155,151.7v101.5c-5.4,0-41.6,0-42.7,0c-39.4,0-65.9-5.9-81-16.7
			c-11.3-8.6-16.7-21.6-16.7-38.9V702h98.3l40.5-37.3l-40.5-32.9h-98.3v-135h-64.8v332.1c0,79.9,54,120.4,163.1,121
			c0.5,0,36.7,0,42.1,0V1080h64.8V945h90.2c103.7,0,158.2-47,158.2-157.7c0-61.6,0-155.5,0-155.5S831.5,631.8,785.6,631.8z
			 M875.8,804.1L785.6,702h90.2L875.8,804.1z"/>
		<path fill="#11ACD1" d="M1154.4,698.8c-40.5,0-68.6,5.4-83.7,16.7c-11.3,8.1-16.7,21.1-16.7,38.9v194.4h-65.3V742
			c0-80.5,55.1-108,165.8-108V698.8z"/>
		<path fill="#11ACD1" d="M1494.6,792.2c0,110.7-51.8,157.1-155,157.1c-103.7,0-155.5-46.4-155.5-157.1s51.8-157.7,155.5-157.7
			C1442.8,634.5,1494.6,681.5,1494.6,792.2z M1429.3,792.2c0-34-5.4-49.7-16.7-64.8c-14-18.9-37.8-28.1-72.9-28.1
			c-34.6,0-58.9,9.2-72.9,28.1c-11.3,15.1-16.7,30.8-16.7,64.8s5.4,49.7,16.7,64.8c14,18.4,37.8,27.5,72.9,27.5
			c34.6,0,58.9-9.2,72.9-27.5C1423.9,842.4,1429.3,826.2,1429.3,792.2z"/>
	</g>
</g>
</svg>
