<?xml version="1.0" encoding="utf-8"?>
<!-- Generator: Adobe Illustrator 19.0.1, SVG Export Plug-In . SVG Version: 6.00 Build 0)  -->
<svg version="1.1" id="Layer_1" xmlns="http://www.w3.org/2000/svg" xmlns:xlink="http://www.w3.org/1999/xlink" x="0px" y="0px"
	 width="1069.2px" height="1080px" viewBox="251 -257.1 1069.2 1080" style="enable-background:new 251 -257.1 1069.2 1080;"
	 xml:space="preserve">
<style type="text/css">
	.st0{fill:#FFFFFF;}
	.st1{fill:#0DABD0;}
</style>
<g>
	<polygon class="st0" points="1247.6,549.6 785.6,816.4 323.6,549.6 323.6,16.2 785.6,-250.5 1247.6,16.2 	"/>
	<path class="st1" d="M1012.8,267.4L808,66.9V-51.4v-53.9l-38.1,38.1l-205,208.7L562,148v9.2v127.6v9.4l3.8,6.6L765,499.1v118.2
		v53.9l37.2-38.1l211-208.7l8.8-6.5v-9.2V283.2v-9.3L1012.8,267.4z M787,617.3V489.7V366L583,157.9v-0.6L787-51.4V62.4v13.7v123.7
		L990,408v0.6L787,617.3z"/>
</g>
</svg>
